<svg xmlns="http://www.w3.org/2000/svg" viewBox="0 0 250 54"><g style="fill:#002855"><path d="M53.38 29.42v-1.01c1.6-.14 2.56-.27 2.75-1.58.13-1.02.2-2.2.2-3.9V10.98c0-1.7-.07-1.77-2.76-1.94V8h6.4c2.27 5.22 4.93 10.96 7.26 16.28h.06c1.9-4.33 5.48-12.4 7.12-16.28h6.34v1.02c-2.66.16-2.76.23-2.76 1.97v15.46c0 1.7.1 1.77 2.76 1.97v1.02h-8.8V28.4c2.7-.2 2.8-.27 2.8-1.97v-15.6h-.1c-2.1 4.8-6.57 14.97-8.02 18.39h-.88a2402.4 2402.4 0 0 0-7.91-18.38h-.07v12.08c0 1.7.07 2.88.2 3.9.2 1.31 1.12 1.41 3.12 1.58v1.01h-7.71zm50.08-10.7c0 6.7-3.38 11.23-10.38 11.23-7.02 0-10.37-4.53-10.37-11.23 0-6.72 3.32-11.29 10.4-11.29 6.97 0 10.35 4.57 10.35 11.3zm-17.07 0c0 4.53 1.21 10.08 6.66 10.08s6.7-5.55 6.7-10.08c0-4.52-1.22-10.1-6.7-10.1-5.45 0-6.66 5.57-6.66 10.1zm36.23 10.7c-4.33-6.2-8.56-12.37-12.96-18.54h-.07v12.04c0 1.71.07 2.9.2 3.91.2 1.35 1.15 1.41 3.15 1.58v1.01h-7.68v-1.01c1.6-.14 2.5-.27 2.69-1.58.13-1.02.2-2.2.2-3.9V11c0-1.74-.07-1.8-2.76-1.97V8h6.07c3.48 4.96 7.88 11.32 11.91 16.94l.04.06V14.5c0-1.7-.07-2.89-.2-3.9-.2-1.35-1.18-1.42-3.18-1.55V8h7.68v1.05c-1.61.13-2.43.2-2.63 1.54a30.7 30.7 0 0 0-.2 3.91v14.93h-2.26zm7.32 0v-1.01c1.6-.14 2.56-.27 2.75-1.58.13-1.02.2-2.2.2-3.9V10.98c0-1.7-.06-1.77-2.76-1.94V8h6.4c2.27 5.22 4.93 10.96 7.26 16.28h.06c1.9-4.33 5.48-12.4 7.12-16.28h6.34v1.02c-2.66.16-2.76.23-2.76 1.97v15.46c0 1.7.1 1.77 2.76 1.97v1.02h-8.8V28.4c2.7-.2 2.8-.27 2.8-1.97v-15.6h-.1c-2.1 4.8-6.57 14.97-8.02 18.39h-.88a2402.4 2402.4 0 0 0-7.91-18.38h-.07v12.08c0 1.7.07 2.88.2 3.9.2 1.31 1.12 1.41 3.12 1.58v1.01h-7.71zm50.08-10.7c0 6.7-3.38 11.23-10.37 11.23-7.03 0-10.38-4.53-10.38-11.23 0-6.72 3.32-11.29 10.4-11.29 6.97 0 10.35 4.57 10.35 11.3zm-17.07 0c0 4.53 1.22 10.08 6.66 10.08 5.45 0 6.7-5.55 6.7-10.08 0-4.52-1.22-10.1-6.7-10.1-5.45 0-6.66 5.57-6.66 10.1zM204.56 8v1c-2.65.2-2.75.27-2.75 2.01v10.64c0 1.87-.33 3.48-.86 4.56-1.44 3.02-4.72 3.74-7.84 3.74-3.09 0-6.27-.75-7.71-3.7a10.8 10.8 0 0 1-.86-4.54V10.98c0-1.7-.06-1.77-2.75-1.94V8h8.8v1.05c-2.67.17-2.77.23-2.77 1.94v10.1c0 3.72.86 7.72 5.32 7.72 4.66 0 5.52-3.77 5.52-7.71V10.98c0-1.7-.07-1.77-2.76-1.94V8h8.66zm12.74 18.44c0 1.38.1 1.74 1.87 1.87l1.54.1v1.01h-10.05v-1.01l1.58-.1c1.74-.1 1.8-.53 1.8-1.87V9.14h-1.77c-3.54 0-4.1.75-4.53 4.33h-1.08V8h18.02v5.48h-1.05c-.43-3.58-.95-4.33-4.53-4.33h-1.8v17.3zm15.81-7.58v7.54c0 1.74.1 1.8 2.8 2v1.02h-8.84v-1.01c2.7-.2 2.76-.27 2.76-2V10.97c0-1.7-.07-1.77-2.76-1.94V8h8.83v1.05c-2.69.17-2.79.23-2.79 1.94v6.63h10.57v-6.63c0-1.7-.06-1.77-2.76-1.94V8h8.8v1.05c-2.66.17-2.76.23-2.76 1.94V26.4c0 1.73.1 1.8 2.76 2v1.02h-8.8V28.4c2.7-.2 2.76-.27 2.76-2v-7.55h-10.57zM82.15 39.8v.61c-1.62.12-1.68.16-1.68 1.22v6.48a6.6 6.6 0 0 1-.52 2.79c-.88 1.84-2.88 2.28-4.78 2.28-1.88 0-3.82-.46-4.7-2.27a6.6 6.6 0 0 1-.53-2.76v-6.54c0-1.04-.04-1.08-1.68-1.18v-.64h5.36v.64c-1.62.1-1.68.14-1.68 1.18v6.16c0 2.26.52 4.7 3.24 4.7 2.85 0 3.36-2.3 3.36-4.7v-6.16c0-1.04-.04-1.08-1.68-1.18v-.64h5.29zm17.28 13.06c-2.64-3.78-5.22-7.55-7.9-11.3h-.04v7.34c0 1.04.04 1.76.12 2.38.12.82.7.86 1.92.96v.62h-4.69v-.62c.98-.08 1.53-.16 1.65-.96.08-.62.12-1.34.12-2.38v-7.27c0-1.06-.04-1.1-1.69-1.2v-.64h3.7c2.13 3.02 4.8 6.9 7.27 10.33l.02.04v-6.4c0-1.05-.04-1.77-.12-2.39-.12-.82-.72-.86-1.94-.94v-.64h4.68v.64c-.98.08-1.48.12-1.6.94-.08.64-.12 1.34-.12 2.38v9.1h-1.38zm13.84-1.82c0 1.04.06 1.08 1.68 1.2v.62h-5.34v-.62c1.64-.12 1.68-.16 1.68-1.2V41.6c0-1.04-.04-1.08-1.69-1.18v-.64h5.35v.64c-1.62.1-1.68.14-1.68 1.18v9.43zm13.08-11.24v.63l-.98.1c-.44.05-.53.2-.34.67 1.12 3.12 2.46 6.54 3.58 9.58l.04.06c1.1-3.02 2.46-6.78 3.4-9.74.1-.34.08-.54-.42-.58l-1.02-.08v-.64h4.12v.64c-1.02.06-1.26.08-1.64.98-1.28 3.26-2.98 7.7-4.37 11.44h-1.45a373.25 373.25 0 0 0-4.25-11.35c-.4-.97-.68-1.04-1.74-1.08v-.64h5.07zm16.18 1.81c0-1.04-.04-1.08-1.69-1.18v-.64h9.59v3.14h-.64c-.28-1.96-.72-2.44-2.86-2.44h-1.72c-.6 0-.69.08-.69.68v4.5H147c1.58 0 1.66-.54 1.84-1.7h.64v4.23h-.64c-.16-1.2-.26-1.76-1.84-1.76h-2.47v4.12c0 1.26.2 1.58 2.38 1.58 2.37 0 3.2-.46 3.65-2.74h.66l-.4 3.46h-9.97v-.62c1.65-.12 1.69-.16 1.69-1.2V41.6zm19.54 9.43c0 1.04.06 1.08 1.68 1.2v.62h-5.36v-.62c1.64-.12 1.68-.16 1.68-1.2V41.6c0-1.04-.04-1.08-1.68-1.18v-.64h5.82c3.26 0 4.16 1.44 4.16 3.22 0 1.8-1.28 2.88-3.04 3.23v.03c2 .48 2.56 1.86 2.78 3.53.18 1.3.48 2.28 1.94 2.44v.62h-1.58c-1.16 0-1.9-.42-2.18-1.64-.2-.88-.42-2.34-.56-2.88-.34-1.37-1.26-1.73-2.44-1.73h-1.22v4.43zm0-5.13h1.42c1.84 0 2.74-.77 2.74-2.72 0-2.5-1.56-2.7-2.94-2.7-1.22 0-1.22.14-1.22.94v4.48zm22.13-2.84c-.31-1.92-1.21-2.9-2.81-2.9-1.57 0-2.4 1.04-2.4 2.4 0 1.5 1.52 2.23 2.72 2.69 2.26.86 3.92 1.6 3.92 4.06 0 2-1.3 3.86-4.69 3.86-1.31 0-2.88-.34-3.72-1.12l-.2-3.06h.64c.5 2.14 1.65 3.48 3.39 3.48 1.66 0 2.68-.9 2.68-2.52 0-1.57-1.58-2.39-2.94-2.89-1.94-.7-3.56-1.52-3.56-3.86 0-2.56 1.98-3.76 4.32-3.76 1.28 0 2.6.36 3.32.8v2.82h-.66zm12.45 7.97c0 1.04.06 1.08 1.68 1.2v.62h-5.34v-.62c1.63-.12 1.67-.16 1.67-1.2V41.6c0-1.04-.03-1.08-1.67-1.18v-.64h5.34v.64c-1.62.1-1.69.14-1.69 1.18v9.43zm15.29 0c0 .84.06 1.06 1.15 1.14l.94.06v.62h-6.13v-.62l.96-.06c1.06-.06 1.1-.32 1.1-1.14V40.49h-1.08c-2.16 0-2.5.46-2.76 2.65h-.66v-3.35h10.99v3.35h-.64c-.27-2.19-.59-2.65-2.77-2.65h-1.1v10.55zm14.5 1.82v-.62c1.93-.12 1.98-.18 1.98-1.2v-2.76c0-.38-.08-.7-.3-1.1-.94-1.83-2.14-3.95-3.22-5.83-.46-.78-.68-.9-1.68-.94v-.62h5.02v.62l-1.12.1c-.3.03-.38.24-.2.57.84 1.72 1.98 3.68 3.04 5.62h.04c1.1-2.1 2.22-4.4 2.7-5.58.16-.39.12-.58-.22-.62l-1.04-.08v-.62h4.12v.62c-1.24.06-1.38.2-2 1.22-.6.98-1.94 3.52-2.9 5.44-.18.36-.24.66-.24 1.12v2.84c0 1.02.06 1.08 1.98 1.2v.62h-5.96zm-173.58-.55-.04-2.3-3.41.16-.02-.23-4.24.02-.92-1.55h-.2l-.2-9.42.36-.93.4.09v-.76l-.4-.19.02-1.28.6-.26V35l-.93-.34-.01-1.88-2.07-.87-.02-7.88 2.23-1.65-2.53-1.54c-.02 0-.01-3.92-.01-3.92l.03-.1.83-1.22-.84-.67a.084.084 0 0 1-.04-.07v-1.3c0-.01 0-.02.02-.02l.19-.04c.07-.01.1-.05.12-.13l.06-.7a.22.22 0 0 0-.07-.15l-.92-.76c-.04-.25 0-1.51.08-1.66l.03-.03.07-.13a.56.56 0 0 0 .03-.18.9.9 0 0 0-.05-.43l-.07-.12-.05-.07a.8.8 0 0 1-.07-.24l-.05-.22a.53.53 0 0 0-.27-.3.35.35 0 0 0-.28-.01l-.03.03-.03-.03-.03-.03a.36.36 0 0 0-.26-.1.49.49 0 0 0-.35.14l-.06.11-.03.03c-.08.17-.3.22-.4.37-.12.15-.13.38-.13.57 0 .25.05.53.13.79l-.41-.34-.49-.4-6.98-5.7c-.06-.24 0-.83.14-1.03l.03-.05c.04-.06.09-.12.12-.2.03-.09.04-.18.04-.26 0-.19.02-.42-.09-.63a1.48 1.48 0 0 0-.1-.17 1.16 1.16 0 0 1-.07-.12c-.05-.1-.08-.23-.1-.36a1.9 1.9 0 0 0-.08-.33.78.78 0 0 0-.4-.43.5.5 0 0 0-.4-.02l-.04.02-.03.02-.03-.04-.04-.05a.54.54 0 0 0-.4-.15.71.71 0 0 0-.62.41v.01c-.13.26-.44.33-.6.55-.18.23-.2.56-.2.84 0 .63.17 1.33.47 1.9l-2.15.41-.4.37-.1.05-18.8 3 .02-.76a5.47 5.47 0 0 0-.13 0h-.02v.08l-.08.3v.43c-.02.2-.33.27-.35.45l-.34.3.32.79a.68.68 0 0 0-.38.12h-.01a.6.6 0 0 0-.36.4l-.01.03-.1.16a.28.28 0 0 1-.1.04c-.23.04-.46.23-.62.52-.02.29.33.29.37.58v.19c.03.08.08.12.14.14l.2.1a1.4 1.4 0 0 1-.42.34c-.29.15-.6.17-.89.13-.03 0-.07 0-.1.03-.04.06-.02.18.02.25.05.1.14.14.22.12.05 0 .1-.04.15 0 .05.08.02.25.07.33.05.06.14 0 .19.06.06.06.05.22.11.26h.09c.05.01.09.09.12.17l-.17.21a.95.95 0 0 1-.27.22.77.77 0 0 1-.35.07.27.27 0 0 0-.14 0c-.11 0-.22-.02-.33 0-.27.03-.58.27-.62.71.17.17.3.43.38.72l.16-.18c-.03.11.08.17.15.14.08-.04.17-.09.21.02l.09-.1c.2.02.4.22.5.52.02-.18.15-.29.26-.25.06.26.17.5.31.7.03.12.05.23.1.32.05.14.13.24.22.3-.1.08-.18.13-.26.12-.12-.03-.22-.3-.35-.4-.17-.14-.36-.19-.52-.34-.22-.2-.32.06-.47.24-.08.1-.2.07-.29.1.08.24.25.53.21.74-.04.3-.23.52-.32.7l-.64-.25v.03c0 .45.18.84.43.99l-.15.28.53.43a.85.85 0 0 1-.92-.16c-.08-.07-.2-.15-.25-.03-.05.09-.02.23.03.32s.12.15.16.25c.1.27-.05.71.1.88.04.04.09.05.13.06-.04.5-.3.82-.62.8-.17-.02-.35.12-.52.19l.04.1h-.02c-.12.16-.23.34-.31.56a.35.35 0 0 0 .21-.17c.04.1.02.23-.03.3.1-.01.18-.1.23-.22l-.05.62c.02-.1.1-.15.16-.11.06.04.1.15.07.25l.15-.06c.05.1.06.21.05.32.07-.13.19.07.2.24 0 .16-.03.37.06.46l.09-.1c.06.41.22.75.38 1.07.04 0 .08.02.11.05-.54.09-1.06-.19-1.6-.16l.01.03c-.17.2-.33.44-.47.71l.17-.1a1 1 0 0 1 .04.37l.14-.05c-.02.11.04.23.1.24h.1c.13.02.1.4.2.53.1.02.17.13.2.26l-1.21-.33-.04.12.08.13c.04.13.05.3.06.44.02.2.09.44.21.45.06 0 .11-.05.16-.01.1.07.05.32.1.46.04.11.13.15.2.1.03 0 .07-.04.1-.02.03.01.04.05.06.1l.11.43c.05.14.13.27.23.26.05 0 .1-.04.14 0l.03.03c.02.06.03.1.06.14l.13.33c-.45.25-.94.29-1.39.06-.03.17 0 .38.09.5.08.12.21.16.31.08l.07-.03c.06.02.06.15.08.24.02.11.1.17.16.22-.42.23-.88.3-1.32.2-.03.3.08.63.24.76.05.03.1.05.14.11.06.1.05.27.11.37.06.1.15.1.23.08v.02l.4.31.02.12-.14.18v.05c-.3.24-.62.37-.96.38l.62.56c.06.05.12.1.19.13.06.02.12.01.18.04.2.09.34.52.56.48.05-.01.1-.06.16-.05.07.01.12.1.18.2-.2.12-.39.22-.6.3a1.23 1.23 0 0 1-.03-.04.367.367 0 0 0-.2-.08c-.19.03-.37.08-.56.12 0 .03.03.08.05.13-.3.01-.6-.04-.88-.14.02.23.25.21.35.36l-.14.31.18.1v.04c.03.05.07.06.11.06h.03c.03 0 .05.02.07.03l-.28.55.07.12.48-.2.1.07v-.09l-.02-.02.22-.1-.08.29-.11-.08c.01.1 0 .22-.01.33-.02.14-.02.3.04.4.03.06.1.06.14.03l-.1.7c.14-.04.27-.12.4-.15l.04.1a.23.23 0 0 1 .1-.1c.1.03.2.17.3.23l.03.02c.05.06.1.08.16.1l.36.18c-.15.23-.36.36-.56.46l-.67.36c.1.05.26-.1.3.07.02.03.02.06.03.1.04.13.16.03.23-.08l.06.58c.1-.08.22-.01.3.1.09.12.15.28.23.4.02.05.05.09.09.12l-1.13-.15c.04.72.45.54.67.82-.19.1-.36.21-.58.35L.71 40.4l.4.96.26.27-.03.1-.04.01c-.04 0-.07.02-.1.03H.63l-.02.12.02.02-.64.16.23.31c-.03-.04.01-.13.05-.11.04.01.07.08.08.14l.19.65.12-.46.46.6c.03.03.07.08.1.08.02 0 .04 0 .05-.02l.08.11a1 1 0 0 1 .17-.21v-.01c.1-.08.2-.05.33.25.1.25.33.36.49.53l.7-.1c-.02.05-.05.08-.08.12a1.2 1.2 0 0 0-.24.1c-.25.12-.47.37-.68.61l-.62.72a.5.5 0 0 0-.11 0c-.29.04-.51.4-.7.73.05-.05.15.05.2.16.04.14.11.32.2.27.07-.03.1-.16.16-.2.1-.06.2.16.3.12.06-.02.1-.1.16-.13.12-.05.2.22.33.23.08.01.15-.09.23-.06.1.04.12.29.2.41.12.16.3.06.44.09l-.42.31c.21.32.71-.1.74.56a4.73 4.73 0 0 1-.6.73l-.14.1c-.6.44-1.4.64-1.76 1.39.13-.2.38-.17.58-.1.2.07.4.18.6.12.16-.04.3-.18.46-.12.06.03.11.09.16.14 0 .1.07.13.2.15-.08.3-.01.5.24.61-.2.32-.38 0-.54.04a.9.9 0 0 1-.2.23l-.28.24c-.04.04-.1.14-.1.18.02.07.09.14.15.17.15.06.32.14.48.12.13-.01.23-.04.22.15 0 .08-.5.56-.58.62-.04.04-.1.02-.14.06-.05.05-.1.14-.08.2.01.07.08.13.14.16.05.03.1 0 .18 0-.16.28-.23.46-.21.6l.25-.14c.13-.06.27.02.4.04h.53c33.28-.25 42.98-.26 42.98-.26l6.76-1zM2.72 26.68l-.1-.03a.32.32 0 0 1 .1-.04v.07zm46.5 23.45v.1l-4.02.28-18.86.16v-.15c0-.06.03-.08.07-.08l18.38-.26 4.42-.05zm-27.8-19.07-.05-6.42-1.4.12.06 6.41h-.65l-.05-6.35-1.16.1.05 6.3h-.28l-.08-9.07h.06l3.68-.33.07 9.23h-.12l-.13.01zm5.63-.11V32l-12.18.6c.05-.12.1-.23.18-.32l-.16.03.2-.27c-.27-.03-.58-.17-.8-.06-.34.17-.62.02-.93-.08-.05-.02-.12-.04-.13-.08a1.27 1.27 0 0 0-.08-.2l13.9-.67zm0 1.21v.57l-12.55.58c0-.04.01-.08.03-.1.04-.08.14-.1.17-.03.01-.15.05-.29.1-.42l12.25-.6zM13.6 34.04l.1-.23c.07.12.2.18.32.15.22-.02.41-.23.46-.5l12.57-.58v.5l-13.45.67v-.01zm13.61-.5 1.98-.1-.03 16.76H29l-1.85.02.06-16.68zm-15.8-13.36 15.7-1.83v1.25l-15.65 1.7-.38-.57.55-.08-.23-.47zm-.11 1.33 19.29-2.1v.32L11.2 21.87c0-.15 0-.28.09-.36zm17.92-2.14-1.95.21v-1.24h-.1l2.03-.24.01 1.23.01.04zm2.55-.99 9.58 5.4.01 1.53-3.33-1.9-.1-.1-.62-.83a.16.16 0 0 0-.12-.05l-.9.05a.3.3 0 0 1-.15-.03l-4.3-2.19-.61-.3-.4-.22-.06-.01v-.3l-.01-1.51.08-.01c.05-.01.1 0 .13.02l.28.16.52.3zm-1 1.57h.01l.45.22.2.1.13.07.2.11 4.34 2.2c.06.03.11.03.14.03l.86-.05c.05 0 .09.02.11.06l.59.77a.3.3 0 0 0 .1.1l3.47 1.98.04 6.32-1.35-.56-.04-5.47c0-.05-.03-.08-.07-.1l-1.2-.73c-.04-.02-.05 0-.05.03l.04 5.72-.96-.4-.04-5.7.01-.16a1 1 0 0 0-.06-.47 1.2 1.2 0 0 0-.75-.72c-.24-.1-.45-.1-.62.02a.72.72 0 0 0-.32.36.9.9 0 0 0-.08.22v.14l.04 5.56-.18-.08-.95.05-.07-6.8c0-.05-.03-.08-.07-.1l-1.74-.87-.17-.02c-.05 0-.08.02-.08.07l-.02 7.82-.75.04c-.05.01-.07.04-.07.08l.02 2.22c0 .03 0 .05.03.06h-.09c-.03 0-.04.03-.05.05l-1.01-.3.01-11.87zM40.9 31.86l.52.22v1.72l-1.34-.47v-.02l-.02-1.8.63.26.2.1zm-1.66-.9.02-4.5c0-.06-.02-.09-.06-.1l-.3-.15v-.4l.45.27c.05.02.07.06.07.1l.04 4.88-.22-.1zm.22.3.02 1.86-.22-.08v-.02l-.02-1.84.22.09zm-.51-5.65c-.02-.01-.04-.02-.05 0v-.22c0-.04.02-.06.06-.03l.78.46-.2.11-.02.01-.57-.33zm.73 7.54-.02-1.8.2.08.02 1.84-.21-.08a.1.1 0 0 0 0-.04zm-.02-2.02-.04-5.02h.01l.2-.1.03 5.21-.2-.09zm-.92-.16.02 1.9-.65-.22-.32-.12v-1.96l.3.12.65.28zm-1.52-.85-.04-5.5-.03-.13a.91.91 0 0 0-.13-.32c-.13-.23-.29-.36-.48-.39a.48.48 0 0 0-.42.13l.06-.17c.05-.1.13-.2.24-.26.12-.07.27-.07.46 0 .31.12.52.33.62.61.05.14.07.27.05.4v.13l.04 5.66-.37-.16zm.37.37v1.99l-.36-.14v-2l.36.15zm-.74-.52-.05-5.32a.48.48 0 0 0-.04-.18.55.55 0 0 0-.3-.29c-.12-.04-.22-.05-.3-.02l-.02.02a.32.32 0 0 1 .08-.12c.07-.08.17-.1.3-.08.17.03.3.12.38.28.04.08.06.15.07.23v.15l.05 5.4-.17-.07zm.17.29.02 2.02-.18-.07V30.2l.16.07zm6.5 8.66a2.55 2.55 0 0 0-.5-.03l-.5.04-.22-.65c-.01-.06 0-.09.05-.09l.72-.03.53.08c.05.01.06.05.05.1l-.13.58zm.25 9.47c0 .05-.03.07-.07.07l-1.16.01c-.04 0-.07-.02-.07-.07l.08-8.9h.01l.47-.03c.2 0 .35 0 .48.02l.26 8.9zm-.8-10.47-1.01.06c-.05.01-.07 0-.07-.06 0-.09.02-.14.07-.15l1.05-.05.03.01s0 .19-.06.2zm-.88.35.25.75.02.15v1.43c-.51-.72-.9-.51-.9-.51l-.04-1.52v-.15l.07-.29.6.14zm1.39 10.94c0 .05-.03.07-.07.07l-1.06.01c-.04 0-.07-.02-.08-.07v-.16c0-.04.02-.07.07-.07h1.05c.06 0 .09.02.09.06v.16zm.03.21c.05 0 .08.03.08.07l.01.51-1.02.02v-.52c0-.05.01-.07.06-.07h.87zm-1.13-.03c.04 0 .06.02.06.07l.01.56h-.96l-.02-.55c0-.05.03-.07.07-.07h.84zm-9.85-13.96v-.32c0-.05.02-.08.07-.08l2.68-.13c.01 0 .02.02.02.05v.33l-2.77.15zm.48.3.12 14.41h-.18v-.02l-.1-14.38H33zm2.74-3.68h.02v.23h-.02l-3.72.21c-.05 0-.08-.02-.08-.07v-.09c0-.05.02-.07.08-.07l3.72-.21zm-3.7.02.03-.06-.02-2.03c0-.05.02-.07.07-.07l.56-.03v2.14l-.63.04zm2.38-2.27.2-.01.03 2.12-.21.01v-.04l-.02-2.08zm0-.2-.08-6.34.02-.02.19-.21.07 6.55-.2.02zm-.2-6.5-1.27-.62h-.05l-.01.02V22l1.59.8-.27.3zm-.15.15c.05.03.07.07.07.11l.08 6.24-.35.02-.06-5.92c0-.05-.02-.08-.06-.1l-.84-.35h-.02v-.57l1.18.57zm.19 8.68-.37.02-.02-2.13.35-.01.04 2.12zm.56-2.16.85-.04c.05 0 .1 0 .14.03l.14.05.02 2.03-1.12.06-.03-2.13zm-2.42 4.03c0-.04.02-.07.07-.07l2.72-.14c.05 0 .07.02.07.07v.96c0 .02 0 .04-.02.06l-2.76.15c-.05 0-.07-.02-.08-.07v-.96zm3.27 3.22a2.33 2.33 0 0 0-.61-.04c-.17 0-.32 0-.45.03l-.14.02-.26-.83c-.01-.04 0-.06.05-.08l.73-.04h.14l.65.1c.05.01.07.04.06.1l-.17.74zm.1 11.15c0 .05-.02.07-.06.08h-1.4c-.05 0-.07-.02-.07-.06l.26-10.52v-.01l.57-.05c.23 0 .42.02.57.04l.13 10.52zm-1.95-12.26c-.04 0-.07-.02-.07-.06v-.15c0-.05.02-.07.07-.07l1.29-.07v.26l-.03.02-1.26.07zm.24.52.22.7.02.14-.02 1.16c-.6-.73-1.06-.4-1.06-.4l-.03-1.8.87.2zm1.28 12.4c.05 0 .07.03.07.08v.23c0 .05-.02.08-.07.08h-1.7c-.04 0-.06-.02-.06-.07v-.25l.01-.04 1.75-.02zm-2 .61c0-.04.02-.07.07-.07l2.05-.02c.05 0 .07.03.07.07v.7l-2.19.02v-.7zm.66-.76c-.04 0-.07-.03-.07-.08v-.12c0-.05.02-.07.07-.07l2.02-.02c.04 0 .06.02.06.07v.12c0 .05-.02.08-.06.08l-2.02.02zm1.58.23c0-.05.02-.07.07-.07l.76-.01c.05 0 .08.02.08.07v.23c0 .05-.03.08-.08.08h-.76c-.04 0-.07-.02-.07-.07v-.23zm.13.51c0-.04.03-.07.07-.07h.95c.05 0 .07.02.07.07v.67l-1.08.02v-.69zm1.08-.26v-.2c0-.05.02-.08.07-.08h1.6c.06 0 .08.02.08.06v.21c0 .05-.02.07-.06.07l-1.62.01c-.05 0-.07-.02-.07-.06zm.2.21 1.6-.01c.05 0 .08.02.08.07l.01.64-1.75.02-.02-.64c0-.05.02-.08.07-.08zm.2-.66c-.04 0-.07-.02-.07-.07v-.1c0-.04.02-.07.06-.07l1.92-.01c.05 0 .08.02.08.07v.1c0 .04-.02.07-.07.07l-1.91.01zm.22-.46.1-9.95.53-.04c.22 0 .4.01.55.03l.29 9.95c0 .05-.02.07-.07.07l-1.33.01c-.05 0-.07-.02-.07-.07zm1.3.7c0-.05.02-.08.06-.08h.72c.05 0 .07.02.07.07l.01.2c0 .05-.02.07-.08.07l-.7.01c-.06 0-.09-.02-.09-.07v-.2zm.2.4.95.02.02.05.02.63-1.04.02-.02-.64c0-.05.02-.07.08-.07zm.81-.1a.07.07 0 0 1-.02-.05v-.18c0-.05.02-.07.07-.08h1.33c.05 0 .07.02.07.07v.18c0 .05-.02.07-.07.07h-1.38zm.4.16h1.1c.05 0 .07.01.07.06l.02.56-1.25.02-.02-.57c0-.05.03-.07.07-.07zm-.21-.63c-.05 0-.07-.02-.07-.07l-.01-.08c0-.05.02-.08.08-.08l1.78-.01c.05 0 .07.03.08.08v.08c0 .04-.02.07-.07.07l-1.79.01zm.2-.45.1-9.36.5-.04c.2 0 .37.01.51.05l.26 9.34c0 .05-.02.07-.07.07l-1.22.01c-.06 0-.09-.02-.07-.07zm1.22.68c0-.05.02-.08.07-.08h.66c.05 0 .08.02.08.07v.18c0 .05-.02.07-.07.07h-.66c-.05 0-.08-.01-.08-.06V49zm.37-11.56c-.02.04-.03.06-.05.05l-.71-.16h-.01v-.21h.05l.66.14c.05.01.08.05.08.1l-.02.08zm-.4.2.07.07v.03l-.15.63a3.34 3.34 0 0 0-.53-.04l-.53.04-.23-.7c-.01-.04 0-.07.05-.08l.76-.04.57.09zm-.58-.35-.04.02h-.02l-1.09.07c-.05 0-.07-.02-.07-.07v-.09c0-.04.02-.07.07-.07l1.12-.06.02.01v.2zm-1 .48h.04l.22.7.02.14-.01 1.33a1.81 1.81 0 0 0-1.05-.61l-.11-.01-.06-1.46.07-.32.88.23zm-.66-1.01-.31-.07a.64.64 0 0 0-.14-.03l-.28-.07a.2.2 0 0 1-.05-.03v-.22h.02l.74.16c.05 0 .07.04.08.09v.1c0 .06-.02.08-.06.07zm-.36.14c.05 0 .06.04.05.09l-.14.69c-.16-.04-.36-.05-.58-.04l-.57.05-.25-.76c-.01-.05 0-.08.05-.09l.68-.05.14.01.62.1zm-.64-.36a.1.1 0 0 1-.05.01l-.57.04h-.01l-.59.04c-.05 0-.08-.02-.08-.06v-.13c0-.04.02-.07.07-.07l1.17-.07c.02 0 .04 0 .06.02v.22zm-1 .56.22.69c.03.04.03.1.02.14l-.01 1.27c-.83-.93-1.42-.5-1.43-.48l-.02-1.47v-.43l1.23.28zM36.25 36c0 .05-.02.07-.07.06l-.77-.18a.17.17 0 0 1-.05-.03v-.25h.05l.77.17c.04.01.07.04.07.1V36zm-.77-2.42h.21l8.3 2.52c.05.01.07.04.07.09v1.06L35.5 34.7l-.02-.02-.01-1.11zm-3.72-1.29v.35c0 .05.03.07.08.07h.08v.3l-1.15-.42v-.6l.99.3zm.17.89v.13l.14.05h.03l.06.34.08.02v.07l-1.47-.54v-.51l1.16.43zm-1.16.24 1.47.54-.01 1.02c0 .05.02.07.07.07h.04v.58c0 .05.03.07.08.07h.24l.1 14.44.02.02-1.09.01-.63.02h-.25l-.04-16.58v-.2zm-3.55-.7v-.55l1.99-.1v.57l-1.98.09zm1.98.08v.5l-1.98.09v-.5l1.98-.1zm0-1.95v1.06l-1.97.1v-1.06l1.98-.1zm-1.97-.06.05-10.48 1.95-.21-.02 10.6-1.98.1zm2.15 2.65 1.24-.06.01 16.81-1.29.02.04-16.77zm0-.16v-.5l1.23-.05v.5l-1.23.05zm0-.65v-.57l1.23-.06v.57l-1.23.06zm0-.73v-1.05l1.23-.06v1.05l-1.23.06zm0-1.21.03-10.61 1.19-.14v.2l.01 10.49-1.22.06zm1.2-11.47-1.18.14v-1.27l1.19-.14v1.27zm14.1 30.27.02.51h-.93v-.5c-.02-.05 0-.07.07-.07h.77c.05 0 .07.02.08.06zm-.35-.5h.04c.02.01.02.02.03.05v.18c0 .04-.02.07-.07.07h-.62c-.04 0-.07-.02-.07-.07v-.16c0-.04.02-.07.07-.07h.62zm-.35-.37c.05 0 .07.02.07.07v.07c0 .05-.02.07-.07.07l-1.7.01c-.04 0-.06-.02-.06-.07v-.07c0-.04.02-.07.06-.07l1.7-.01zm0-10.57c-.02.04-.03.06-.05.05l-.61-.13a.17.17 0 0 1-.05-.03v-.18h.04l.62.14c.04.01.07.03.07.08l-.02.07zm.37-.57c.05.01.07.05.07.1v.19l-.04-.02-8.87-2.45v-.43h.04l8.8 2.61zm.27-2.4c.05 0 .07.04.07.08 0 .1-.01.15-.05.14l-8.61-2.93v-.27l8.6 2.98zm-.9-2.06v.25l.01 1.33-.1-.03-1.8-.64-.02-1.69 1.92.78zm-2.2-9.37-10.08-5.67-.43-.24a.3.3 0 0 0-.12-.03L11.3 20l-.16-.32.05-.13 20.18-2.56 10.64 6.23h.02l-.52.43zm-30.23-4.32v-.03.03zm.5-.44.6-.07.03.37-.59.07-.03-.37zm1.13-.13.51-.07.04.37-.52.06-.04-.36zm1.04-.13.53-.06.04.36-.53.06-.04-.36zm1.06-.13.59-.07.03.35h.07l-.65.08-.04-.36zm1.12-.13.58-.07.03.35-.58.07-.03-.35zm1.1-.14.59-.07.03.35-.58.07-.03-.35zm1.81.13-.66.08-.03-.34.69-.09v.35zm.53-.41.68-.08.01.34-.67.08-.02-.34zm1.76-.22.14-.02v.34l-.66.09-.02-.34.54-.07zm1.44.16-.75.1-.02-.34.76-.09v.02l.01.31zm1.29-.16-.75.1-.02-.33.77-.1-.01.03v.3zm1.3-.16-.77.1-.01-.33.76-.1v.04l.01.29zm1.28-.16-.76.1-.02-.33.77-.1-.01.04.02.29zm1.3-.17-.78.1-.01-.32.77-.1v.04l.01.28zm1.29-.16-.78.1-.02-.32.78-.1a.1.1 0 0 0 0 .06l.02.26zm1.29-.16-.79.1-.02-.3.79-.1-.01.04.03.26zm.44-.37.4-.04v.3l-.39.05-.01-.3zm.68.38.1-.23.38.22-.13.22-.35-.21zm.64.38.03-.08.07-.16.32.2-.12.2-.3-.16zm.6.34.08-.23.34.2-.13.2-.3-.17zm.58.34.08-.22.01-.01.35.2-.12.21-.32-.18zm.58.34.01-.02.1-.2.34.2-.12.2-.33-.18zm.6.35.01-.04.09-.18.32.2-.12.2-.3-.18zm.58.33.08-.2v-.02l.36.21-.12.2-.32-.19zm.6.35.08-.22.36.22-.11.19-.34-.19zm.58.34.1-.2.35.2-.12.2-.33-.2zm.6.35.1-.2.33.2-.11.19-.33-.19zm.58.34.06-.2v-.02l.38.21-.12.2-.32-.19zm.59.34.1-.2.35.2-.12.2-.33-.2zm.58.34.1-.2.36.21-.11.2-.35-.2zm.59.34.09-.2.37.22-.11.19-.35-.2zm.59.35.09-.2.37.22-.11.18-.35-.2zm.59.34v-.01l.08-.18.38.22-.09.18h-.01l-.36-.2zm.58.34.1-.19.4.25-.12.16-.38-.22zm1.08.63-.02-.01-.46-.27.1-.18.48.28-.1.18zm-.94-6.42a.25.25 0 0 0-.02.06l-9.63-6.9v-.93l9.98 7.32-.33.45zm-1.47-.28c0-.04-.02-.08-.06-.12l-1.24-.86c-.04-.03-.06-.02-.06.03l.03 3.58-1.15-.7v-.03l-.1-3.86c0-.06-.01-.1-.05-.12l-1.38-1c-.04-.02-.06-.01-.06.03l.03 4.05-1.3-.79v-.04l-.03-4.14c0-.04-.02-.08-.06-.12l-1.54-1.16c-.04-.03-.06-.02-.06.03l.03 4.44-1.03-.63-.08-.04-.1.02a.12.12 0 0 0 .01-.07l-.03-4.59a.12.12 0 0 0-.06-.1l-.72-.43c-.02-.02-.07-.03-.13-.03l-.84.09a.16.16 0 0 1-.13-.03l-.21-.16-.1.02-2.58.35a.26.26 0 0 0-.12.07l-.21.24c-.02.04-13.78 2.04-18.08 2.67l.2-.37 17.86-2.53c.06-.01.1-.04.12-.07l.21-.24a.14.14 0 0 1 .12-.06l2.5-.35c.04-.01.09 0 .13.03l.14.1c.02.03.07.05.13.05l.87-.1c.04 0 10.56 7.51 10.56 7.51l-.02 3.7-1.34-.8a.1.1 0 0 0 0-.04l-.07-3.43zm-.72.49a.1.1 0 0 0-.06-.1l-.33-.2-.04-.02v-.74c0-.04.01-.05.05-.03l.84.6c.04.02.06.06.06.1l.07 3.26-.53-.33.01-.04-.07-2.5zm-1.96 1.32-.6-.36-.05-2.96-.01-.03c-.01-.04-.03-.06-.05-.08l-.47-.3v-.74c0-.04.01-.05.05-.03l.98.7c.04.04.06.08.06.13l.09 3.67zm-3.58-5.33-.56-.38v-.92c0-.04.01-.05.05-.02l1.14.86c.04.04.06.07.06.12l.03 3.96s-.63-.37-.63-.39l-.03-3.12a.13.13 0 0 0-.06-.11zm-2.09 2.1-.6.08L30.8 10l.49.28c.04.03.06.07.06.11l.03 4.48c0 .05.02.08.05.08zm-2.07-5.11c.04 0 .08 0 .12.04l.13.1c.04.04.08.05.13.04l.86-.1.04 5.1v.03l-1.27.15c.02 0 .03-.03.03-.06l.04-5.23c0-.05-.03-.07-.08-.07zm-.09 5.37h.03l-2.01.24v-.05l.04-5.21c0-.04 0-.06-.04-.06l1.98-.28c-.02.01-.03.03-.03.06l-.04 5.23c0 .04.02.07.07.07zM7.74 12.05a.6.6 0 0 1 .19-.23L26.48 8.8c.06 0 .1-.02.12-.06l.22-.24.11-.07c.16 0 .24.01.24.04l-.01.9a.12.12 0 0 1-.08.09l-.31.04c-.04 0-.08.02-.12.06l-.2.25a.3.3 0 0 1-.13.06l-17.9 2.54-.68-.36zm19.62-2.7.01-.9c0-.05.02-.08.08-.1l1.77-.24c.05 0 .07.02.08.06l-.02.9c0 .05-.03.08-.08.1l-1.77.24c-.05 0-.07-.01-.07-.06zm2.12-.3.02-.9.01-.08.07.04.13.11c.04.03.09.04.13.04l.7-.09.08.01c.04.02.05.03.04.05l-.01.91c0 .05 0 .07-.03.08l-.79.08c-.06 0-.1 0-.13-.03l-.14-.11-.07-.04v-.07zm1.37.15v-.85c0-.02 0-.04.02-.07.02-.03.04-.03.05-.02l.4.38c.05.04.07.1.07.14l.02.74c-.01.04-.04.06-.07.04l-.38-.24c-.07-.04-.11-.07-.11-.12zm8.73-.3c.01-.14.04-.27.12-.37.04-.04.1-.07.17-.07a.1.1 0 0 1 .04 0l.01.02c.08.05.13.13.12.22-.02.15.21.21.23.06l-.02-.17.05-.01a.11.11 0 0 1 .1 0c.06.03.12.1.14.17l.05.18c.01.1.03.2.08.3a1 1 0 0 0 .07.1l.05.1c.04.08.04.2.03.3l-.01.11c0 .03-.03.05-.05.08l-.03.04a5.46 5.46 0 0 0-.13 1.58l-.04-.02.01-.02-.23-.19V9.9h-.25l.01 1.23-.02-.02-.3-.23v-.01l-.2-.18h-.02c-.05-.6-.05-1.13.02-1.78zm-.24.05c-.05.48-.06.9-.04 1.34-.1-.28-.17-.57-.17-.84 0-.24.08-.37.2-.5zM29.26 1c.02-.22.05-.42.18-.56a.4.4 0 0 1 .27-.12c.03 0 .11 0 .15.05l.03.03c.05.06.12.14.25.16.08 0 .14-.03.22-.06a.2.2 0 0 1 .15 0c.1.05.2.15.23.26l.07.28c.02.15.05.3.13.45l.09.15.08.13c.07.14.06.32.05.48 0 .06 0 .12-.02.16-.01.04-.04.08-.07.12l-.04.06c-.14.2-.2.6-.21.94l-.21-.18-.21.04-.02-1.43h-.31v1.5l-.85.16A13.1 13.1 0 0 1 29.26 1zm-.67.81a1 1 0 0 1 .35-.78c-.08.8-.1 1.49-.06 2.21-.18-.45-.3-.98-.29-1.43zM7.32 9.69c.19-.25.31-.56.26-.98-.02-.13.25-.3.36-.54-.19.05-.37.1-.66.2l.01-.48 19-3.03.14-.08.41-.37.1-.05 3.55-.64c.03 0 .06.01.08.03l10.96 9.02a.1.1 0 0 1 .03.09l-.02.33-.03.03-.31-.05c-.02.03 0 1.57 0 1.57l-9.63-7.23v.5l10.3 7.73v.03l-.18.26-10.11-7.41a.19.19 0 0 0-.05-.06l-.66-.58a.34.34 0 0 0-.18-.04l-.78.1a.23.23 0 0 1-.13-.03l-.14-.1c-.03-.04-.06-.05-.08-.05l-2.72.38a.27.27 0 0 0-.12.07l-.2.25a.21.21 0 0 1-.13.06L8.22 11.59c.06-.09.09-.19.05-.35l-.24-.1 18.3-2.92a.29.29 0 0 0 .12-.07l.2-.24.11-.07 2.48-.33c.04-.02.08 0 .12.04l.14.1c.04.03.1.04.18.02l.88-.15.11.05.68.55h.05a.07.07 0 0 0 .02-.05l.02-3.02a.16.16 0 0 0-.05-.12l-.74-.67c-.04-.03-.06-.01-.06.03l-.05 2.86c0 .05.03.08.07.08h.06c.05 0 .07-.03.07-.08l.04-2.42c0-.02 0-.03.02-.04.01 0 .02 0 .03.02l.36.31c.04.04.05.08.05.12v2.59c0 .01 0 .02-.02.02-.03 0-.04.01-.04.02l-.48-.35c-.04-.07-.09-.1-.14-.1l-.87.15c-.04.02-.09 0-.14-.03l-.06-.06c-.04-.01-.06-.05-.06-.1l.02-2.63c0-.05-.02-.07-.05-.06l-1.67.26a.32.32 0 0 0-.12.06l-.5.5a.17.17 0 0 0-.05.14l-.01 1.98c0 .06-.03.08-.08.08l-.3.05c-.06 0-.1.03-.12.07l-.2.24c-.05.04-.09.06-.13.06L7.75 10.97l.15-.35c.2-.12.44-.31.42-.59-.29.09-.55-.17-.83-.28l-.17-.06zM27.25 7.5l.02-1.88c0-.07.01-.1.04-.13l.39-.4a.18.18 0 0 1 .13-.06l1.35-.22c.05 0 .07.02.07.06l-.02 2.36c0 .03-.02.06-.07.08l-1.84.25c-.05 0-.07-.02-.07-.06zm-18.9 8.84c.12-.08.24-.15.36-.2.31-.1.74.06.77.45.14-.39.5-.64.84-.6-.53-.32-1.05-.67-1.56-1.04l-.1-.02.04-.12.56.16.09-.19-.33-.3.76-.28-.17-.32.28-.39-.04-.16c-.34.06-.69.14-1.04.15-.32.02-.65-.02-.98-.07-.05 0-.09-.09-.13-.17l.54-.08 2.26-.33 15.93-2.29a.3.3 0 0 0 .12-.07l.2-.24a.24.24 0 0 1 .12-.06l.25-.03v.04l-.03 5.21c0 .04 0 .06.03.07l-2.62.33-.12.01-.1.01-.17.02-.41.06v-.01l-.2.02-1.93.24-.04-4.4-3.75.57h-.05l.03 4.3-7.32.87.1-.3c-.59-.29-1.17-.4-1.81 0l.06-.38c-.1-.21-.27-.34-.44-.46zm11.57-1.73.01 1.73-.45.06-.2.02v-1.74l-.99.12.02 1.74-.25.03-.03-4 3.2-.48.04 4.09-.25.03-.01-1.74-1.09.13zM10.25 19h.02c-.08.03-.17.02-.33-.09-.05-.04-.18.1-.28.14-.09.05-.18.08-.28.12 0-.27-.02-.54.01-.8.01-.1.16-.16.25-.23.14-.12.26-.25.4-.35.1-.06.2-.09.3-.12h.02l21.2-2.56c.06 0 .1.01.13.03l11.93 7.24-.8.59-.02-.02-11.37-6.67-20.5 2.5-.05-.02c-.15-.01-.3-.15-.47-.25 0 .14 0 .24-.03.33l-.08.01c-.04.02-.06.04-.06.08l.01.06zm.63 9.7c.12-.16.26-.3.41-.4.1.06 0 .26.08.32.03.02.07.02.1 0l.56-.16.1.18c-.03-.17.13-.29.27-.3.14-.02.3.02.4-.08.08-.06.14-.17.23-.18.06 0 .12.05.18.04.13 0 .19-.2.3-.28.07-.04.16-.03.24-.05.07-.02.16-.1.14-.2-.51-.11-1-.33-1.46-.63l.28-.14c-.3-.34-.2-.6.12-.81l-.23-.39.22-.32c.27 0 .79-.64 1.02-.64l-.04-.1c-.24.03-.95-.2-1.2-.2-.09.01-.18-.36-.19-.4-.02-.16 0-.33.02-.5h-.79l-.03-.15.38-.18a71.9 71.9 0 0 1-.09-.4l.3-.27-.05-.11-.45.2-.31-.33-.72.97-.3-.5c.1-.04.24-.06.36-.1.17-.07.04-.64.46-.37.02-.05.02-.1.03-.16l15.89-1.75-.04 10.47-5.05.24-.07-9.6-4.32.4h-.06l.08 9.42-4.58.22c-.21-.27-.5-.17-.81-.06.13-.16.27-.3.45-.28.06 0 .14.03.2-.02s.07-.18.15-.2c.06 0 .1.05.16.08.13.05.23-.12.3-.26.06-.1.15-.2.24-.2-.2-.1-.42-.2-.63-.25l.02-.02-.66-.26-.49.08a12.2 12.2 0 0 0-.76-.03c.17-.08.34-.17.5-.29.08-.05.16-.11.25-.15.11-.04.24-.03.35-.06.11-.03.23-.13.24-.27-.6.03-1.2-.18-1.7-.58zm1.46 6.3-.12-.09.02-.04.1.14zm9.94 16.44h-.23v-.02h-.07l-.1-12.77-1.78.1.1 12.98h-.65l-.1-12.95-1.84.1.1 12.6h-.23v-.02h-.05l-.1-13.92c-.02-1.22 1.05-2.23 2.37-2.25h.11l.24.02c1.2.13 2.1 1.06 2.12 2.18l.1 13.95zm2.85-.7v.68l-2.46.02-.1-13.95c-.02-1.4-1.2-2.54-2.71-2.6h-.14c-1.52.03-2.76 1.21-2.75 2.64l.11 13.95h-2.2a.35.35 0 0 0-.08-.15c-.03-.04-1.52 0-1.35-.32V51c.19-.02.49-.22.63-.28a.3.3 0 0 0 .14-.18c.02-.04-.05-.13-.1-.18l-.29-.23c-.08-.07.05-.34-.01-.44-.12-.03-.25.13-.39.11l.02-.28c.1-.12.1-.29.05-.5.08 0 .13-.02.16-.05l.51.47.1-.05-.1-.56.94-.3-.69-.31c.4-.16.98.17 1.06-.8-.24-.05-.54-.23-.8-.17-.32.08-.42-.06-.52-.36-.04-.1-.13-.18-.19-.26l.47-.7-.9-.44v-.17c.18-.09.37-.17.53-.27.08-.05.13-.16.19-.25-.08-.06-.17-.17-.25-.17l-.45.04c0-.1 0-.19-.04-.26-.06-.14-.07-.18.05-.2.2-.05.2-.26.16-.43-.01-.09-.13-.15-.23-.26.02-.16.07-.4-.2-.48-.05-.01-.08-.17-.1-.27 0-.02.1-.09.14-.1l.54-.07c.15-.16.02-.42 0-.65 0-.05-.17-.08-.3-.14.03-.03.04-.07.06-.1.07 0 .13 0 .19-.02v-.12c.17-.05.33-.08.5-.11v-.16h-.48c.21-.04.38-.07.55-.13.02 0-.01-.2-.02-.3.2-.13.4-.28.66-.48l-1.2-.14.34-.2c-.1-.2-.58-.15-.27-.63l-.32-.11.29-1.07.7-.2-.56-.61-1.15-.13-.04-.13.51-.33-.65-.56c-.26.02-.58.05-.92.06.11-.16.21-.34.38-.37.08-.01.16.01.24-.01.05-.02.09-.06.13-.1l.6-.55c-.28 0-.54-.1-.77-.28.04-.12.1-.23.18-.33.06.06.14.07.2.02-.07-.1.06-.24.17-.25.11 0 .25.01.3-.1l.04-.14.25-.02.04.05.02-.05 13.5-.66L27 50.23h-.78c-.05 0-.07.03-.07.09v.36h-.93c-.06 0-.08.03-.08.07zm11.6.61-11.37.1v-.48c0-.05.02-.07.08-.07l19.77-.18 7.31-.5v.38l-6.95.71-8.84.04z"/><path d="M21 13.98v-1.6l-1.1.16.02 1.57 1.09-.13zm-1.73.2-.01-1.54-.99.14.02 1.52.98-.12zm2.6 23.34c0-.97-.78-1.77-1.8-1.92l.02 2.51 1.79-.1v-.5zm-4.27-.17v.9l1.85-.1-.02-2.55c-.97.13-1.73.85-1.82 1.75zm2.38-13.17 1.4-.12-.02-1.99-1.4.13.02 1.98zm-1.81.17 1.17-.1-.02-2-1.16.11.01 1.99z"/></g></svg>